<?xml version="1.0" standalone="no"?>
<!DOCTYPE svg PUBLIC "-//W3C//DTD SVG 20010904//EN"
 "http://www.w3.org/TR/2001/REC-SVG-20010904/DTD/svg10.dtd">
<svg version="1.0" xmlns="http://www.w3.org/2000/svg"
 width="2000.000000pt" height="2000.000000pt" viewBox="0 0 2000.000000 2000.000000"
 preserveAspectRatio="xMidYMid meet">

<g transform="translate(0.000000,2000.000000) scale(0.100000,-0.100000)"
fill="#000000" stroke="none">
<path d="M9912 17911 c-77 -43 -142 -101 -251 -225 -107 -122 -297 -373 -383
-506 -156 -241 -250 -456 -301 -691 -50 -222 -60 -345 -61 -738 -1 -200 -4
-350 -7 -335 -4 16 -14 63 -24 104 -9 41 -36 116 -61 165 -76 157 -263 384
-328 401 -51 13 -142 -72 -267 -251 -124 -176 -167 -301 -176 -512 l-6 -133
-73 0 -74 0 0 -175 0 -175 75 0 75 0 0 -1941 c0 -1169 4 -1939 9 -1937 12 4
260 228 379 343 158 151 269 341 415 710 111 279 135 386 242 1063 38 238 65
376 82 425 25 71 26 78 33 442 8 407 17 493 75 720 72 279 294 810 424 1013
92 144 165 191 291 192 128 0 198 -47 295 -198 125 -195 350 -734 420 -1007
59 -227 67 -313 75 -720 6 -347 8 -374 29 -428 27 -73 29 -85 97 -507 99 -622
121 -718 231 -995 146 -369 258 -559 415 -710 120 -115 355 -327 374 -338 12
-7 14 246 14 1935 l0 1943 72 0 73 0 0 170 0 170 -71 0 -71 0 -6 130 c-11 233
-63 370 -219 576 -92 122 -155 185 -194 195 -48 12 -118 -49 -235 -203 -116
-153 -177 -285 -202 -434 -11 -66 -13 -39 -15 266 -1 187 -5 374 -8 415 -22
301 -90 561 -207 795 -41 83 -144 258 -182 310 -265 362 -335 449 -464 573
-81 78 -174 132 -225 132 -17 0 -55 -13 -84 -29z"/>
<path d="M9905 14764 c-69 -17 -105 -27 -105 -31 0 -2 14 -38 31 -78 30 -73
31 -74 57 -63 15 6 65 11 112 11 47 0 97 -5 112 -11 26 -11 27 -10 58 64 17
42 30 77 28 78 -27 22 -237 44 -293 30z"/>
<path d="M9666 14669 c-37 -23 -70 -47 -72 -54 -5 -12 51 -135 61 -135 3 0 37
18 74 41 l69 41 -30 72 c-17 39 -31 72 -32 73 -1 1 -32 -16 -70 -38z"/>
<path d="M10233 14636 l-31 -74 69 -41 c38 -23 73 -40 77 -37 4 2 21 32 37 66
l30 62 -27 22 c-15 11 -49 33 -76 48 l-48 27 -31 -73z"/>
<path d="M9580 10581 c-174 -53 -295 -309 -379 -802 -36 -210 -51 -350 -51
-475 l0 -94 110 0 110 0 0 -99 0 -99 155 0 155 0 0 99 0 99 104 0 104 0 4 80
c2 45 -8 200 -21 347 l-23 265 22 41 c21 36 22 48 16 125 -3 47 -15 130 -26
184 -54 264 -145 370 -280 329z"/>
<path d="M10292 10571 c-38 -24 -84 -93 -112 -168 -27 -71 -58 -231 -66 -335
-6 -77 -5 -89 16 -125 l22 -40 -21 -234 c-23 -261 -23 -272 -22 -381 l1 -78
105 0 105 0 0 -99 0 -100 153 2 152 2 3 98 3 97 109 0 110 0 0 94 c0 125 -15
265 -51 475 -76 445 -188 709 -332 783 -60 30 -135 34 -175 9z"/>
<path d="M8040 9200 l0 -240 30 0 30 0 0 -60 0 -60 30 0 c29 0 30 -1 30 -50
l0 -50 128 -1 c124 -1 126 -1 75 -13 -127 -31 -255 -121 -327 -231 -27 -40
-43 -54 -64 -57 -25 -3 -27 -7 -30 -55 l-3 -53 555 0 556 0 0 55 c0 53 -1 55
-27 55 -22 0 -34 10 -58 47 -67 107 -199 203 -326 237 l-54 15 123 0 122 1 0
50 0 50 35 0 35 0 0 59 c0 58 1 60 28 63 l27 3 3 217 c2 200 1 217 -15 222
-10 2 -115 7 -233 11 -118 3 -307 10 -420 15 -113 5 -215 10 -227 10 l-23 0 0
-240z"/>
<path d="M11685 9430 c-88 -4 -261 -11 -385 -15 -124 -3 -233 -9 -243 -11 -16
-5 -17 -22 -15 -222 l3 -217 27 -3 c25 -3 27 -7 30 -60 3 -56 3 -57 36 -60 31
-3 32 -4 32 -53 l0 -49 123 -1 122 0 -54 -15 c-127 -34 -259 -130 -326 -237
-24 -37 -36 -47 -57 -47 -27 0 -28 -2 -28 -55 l0 -55 556 0 555 0 -3 53 c-3
48 -5 52 -30 55 -21 3 -37 17 -64 57 -72 110 -200 200 -327 231 -51 12 -49 12
76 13 l127 1 0 50 c0 49 1 50 30 50 l30 0 0 60 0 60 30 0 30 0 0 240 0 240
-57 -2 c-32 0 -130 -4 -218 -8z"/>
<path d="M2593 1643 c81 -2 213 -2 295 0 81 1 14 3 -148 3 -162 0 -229 -2
-147 -3z"/>
<path d="M3340 1638 c396 -9 12723 -9 13575 0 358 4 -2619 7 -6615 7 -3996 0
-7128 -3 -6960 -7z"/>
<path d="M18058 1643 c7 -3 16 -2 19 1 4 3 -2 6 -13 5 -11 0 -14 -3 -6 -6z"/>
</g>
</svg>
